<svg height="512pt" viewBox="-143 0 512 512" width="512pt" xmlns="http://www.w3.org/2000/svg"><path d="m162.449219 230.492188c-4.148438 0-7.511719 3.363281-7.511719 7.511718v247.882813c0 5.910156-4.601562 10.878906-10.257812 11.078125-5.953126.199218-11.042969-4.671875-11.042969-10.644532v-48.1875c0-4.148437-3.367188-7.511718-7.515625-7.511718-4.148438 0-7.511719 3.363281-7.511719 7.511718v48.1875c0 10.914063 7.164063 20.917969 17.535156 24.371094 2.914063.972656 6 1.402344 9.070313 1.292969 13.878906-.496094 24.75-11.957031 24.75-26.097656v-247.882813c0-4.148437-3.363282-7.511718-7.515625-7.511718zm0 0"/><path d="m113.03125 99.773438c27.507812 0 49.886719-22.378907 49.886719-49.886719 0-27.507813-22.378907-49.886719-49.886719-49.886719s-49.886719 22.378906-49.886719 49.886719c0 27.507812 22.378907 49.886719 49.886719 49.886719zm0-84.746094c19.222656 0 34.859375 15.636718 34.859375 34.859375 0 19.222656-15.636719 34.859375-34.859375 34.859375s-34.859375-15.636719-34.859375-34.859375c0-19.222657 15.636719-34.859375 34.859375-34.859375zm0 0"/><path d="m118.609375 408.078125c0 4.152344 3.363281 7.515625 7.511719 7.515625 4.148437 0 7.511718-3.367188 7.511718-7.515625v-53.261719c0-11.363281-9.242187-20.605468-20.601562-20.605468-11.363281 0-20.605469 9.242187-20.605469 20.605468v131.503906c0 5.875-4.777343 10.652344-10.652343 10.652344-5.871094 0-10.652344-4.777344-10.652344-10.652344v-304c0-9.59375-7.800782-17.394531-17.394532-17.394531s-17.398437 7.800781-17.398437 17.394531v111.457032c0 5.875-4.777344 10.652344-10.652344 10.652344-5.871093 0-10.648437-4.777344-10.648437-10.652344v-27.542969c0-4.148437-3.367188-7.515625-7.515625-7.515625-4.148438 0-7.511719 3.367188-7.511719 7.515625v27.542969c0 14.160156 11.519531 25.679687 25.679688 25.679687 14.15625 0 25.675781-11.519531 25.675781-25.679687v-111.457032c0-1.304687 1.0625-2.371093 2.371093-2.371093 1.304688 0 2.371094 1.066406 2.371094 2.371093v304c0 14.160157 11.519532 25.679688 25.675782 25.679688 14.160156 0 25.679687-11.519531 25.679687-25.679688v-131.503906c0-3.074218 2.5-5.578125 5.574219-5.578125 3.078125 0 5.578125 2.5 5.578125 5.578125v53.261719zm0 0"/><path d="m162.089844 108.46875h-98.117188c-35.273437 0-63.972656 28.695312-63.972656 63.96875v63.742188c0 4.148437 3.363281 7.511718 7.515625 7.511718 4.148437 0 7.511719-3.363281 7.511719-7.511718v-63.742188c0-26.988281 21.957031-48.941406 48.941406-48.941406h98.121094c26.984375 0 48.941406 21.953125 48.941406 48.941406v120.90625c0 5.90625-4.597656 10.878906-10.253906 11.078125-5.957032.191406-11.046875-4.664063-11.046875-10.644531v-111.457032c0-9.59375-7.804688-17.394531-17.398438-17.394531s-17.398437 7.800781-17.398437 17.394531v25.628907c0 4.152343 3.367187 7.515625 7.515625 7.515625 4.148437 0 7.511719-3.363282 7.511719-7.515625v-25.628907c0-3.050781 4.738281-3.058593 4.738281 0v111.457032c0 10.285156 6.519531 19.953125 16.046875 23.820312 3.335937 1.355469 6.964844 1.96875 10.5625 1.84375 13.878906-.496094 24.75-11.957031 24.75-26.097656v-120.90625c0-35.273438-28.695313-63.96875-63.96875-63.96875zm0 0"/></svg>